PathFileType	4	(X/Y/Z)	 s10c0301.trc
DataRate	CameraRate	NumFrames	NumMarkers	Units	OrigDataRate	OrigDataStartFrame	OrigNumFrames
200	200	4	50	mm	200	501	2000
Frame#	Time	racr			lacr			c7			jug			rlel			rdr			llel			ldr			s2			lic			ric			lasi			rasi			rpsi			lpsi			rgt			lgt			rth1			rth2			rth3			rth4			rlfc			rmfc			rsh1			rsh2			rsh3			rsh4			rlmal			rmmal			rcal			rtoe			rmt5			lth1			lth2			lth4			lth3			llfc			lmfc			llmal			lmmal			lcal			lmt5			lsh1			lsh2			lsh3			lsh4			ltoe			SBIKE			LBIKE			RBIKE			
		X1	Y1	Z1	X2	Y2	Z2	X3	Y3	Z3	X4	Y4	Z4	X5	Y5	Z5	X6	Y6	Z6	X7	Y7	Z7	X8	Y8	Z8	X9	Y9	Z9	X10	Y10	Z10	X11	Y11	Z11	X12	Y12	Z12	X13	Y13	Z13	X14	Y14	Z14	X15	Y15	Z15	X16	Y16	Z16	X17	Y17	Z17	X18	Y18	Z18	X19	Y19	Z19	X20	Y20	Z20	X21	Y21	Z21	X22	Y22	Z22	X23	Y23	Z23	X24	Y24	Z24	X25	Y25	Z25	X26	Y26	Z26	X27	Y27	Z27	X28	Y28	Z28	X29	Y29	Z29	X30	Y30	Z30	X31	Y31	Z31	X32	Y32	Z32	X33	Y33	Z33	X34	Y34	Z34	X35	Y35	Z35	X36	Y36	Z36	X37	Y37	Z37	X38	Y38	Z38	X39	Y39	Z39	X40	Y40	Z40	X41	Y41	Z41	X42	Y42	Z42	X43	Y43	Z43	X44	Y44	Z44	X45	Y45	Z45	X46	Y46	Z46	X47	Y47	Z47	X48	Y48	Z48	X49	Y49	Z49	X50	Y50	Z50	
501	2.5050	672.192569	1218.488841	-10.525254	578.264881	1314.645330	-326.648059	611.446693	1324.834424	-151.998447	597.059565	1181.370764	-173.060074	517.606241	1013.627418	95.704635	644.409878	879.050997	-7.074477	529.712168	1059.468887	-442.647719	667.133527	895.015736	-364.878479	82.857253	1128.537807	-133.045667	227.519116	1176.808233	-296.016458	283.875291	1107.260741	-2.054991	255.250061	1084.559221	-284.920162	276.080126	1022.275887	-35.767099	137.289093	1171.484809	-69.474726	128.137074	1200.821094	-176.286855	166.222344	999.615492	21.241837	132.572264	1049.947416	-355.543679	210.923935	867.559633	29.808549	257.785436	795.977721	5.682951	259.952549	712.188337	-12.471358	292.041104	809.730892	-0.671677	300.626295	617.088447	-39.358616	286.145767	614.175225	-150.259087	242.189336	516.491662	-7.349186	240.074131	429.517762	-23.799003	196.934039	354.629435	-27.660259	268.785854	425.331828	-49.654617	164.608634	263.772189	-42.648749	185.539122	270.973828	-124.340577	109.703680	263.875257	-90.654011	325.676244	150.989088	-85.733687	238.732788	158.247693	-24.645474	226.569757	970.364255	-399.694932	309.672378	944.540416	-401.112099	328.710121	971.647667	-385.430194	369.754246	880.875575	-417.159687	444.029206	807.107633	-419.349837	456.776260	779.913840	-298.683079	113.547365	618.378070	-376.512246	133.708545	611.514783	-296.939826	56.057163	632.446846	-327.525038	137.980430	473.371687	-388.609113	334.054349	752.862244	-437.703872	279.002454	688.510958	-413.924822	194.974623	661.427518	-400.492868	299.120698	667.766405	-389.184060	210.325587	429.209111	-330.354874	-204.387549	834.197604	-223.733958	-78.170942	82.062900	-423.872126	-102.680328	80.371703	-24.343447	
502	2.5100	672.367299	1221.154170	-12.268800	578.228428	1315.615781	-329.713705	611.927014	1325.688541	-154.650702	597.506626	1182.103020	-175.306580	519.951467	1015.767823	95.071763	644.572743	878.860107	-7.122509	528.710642	1059.420761	-443.677129	666.986558	895.265607	-364.896258	84.153092	1128.801316	-132.118329	226.921496	1177.451242	-295.448833	285.448123	1107.490800	-2.242213	255.201062	1085.289397	-284.875190	277.109809	1022.734252	-35.955977	138.592144	1171.796017	-68.429176	128.562177	1201.185766	-174.914541	166.698152	999.895399	21.617593	132.784201	1051.109280	-354.739050	208.880077	867.281615	30.246609	254.382777	795.086792	5.985747	255.159572	711.225515	-12.187099	288.851421	808.236122	-0.374447	294.351391	615.724914	-39.190499	279.680297	612.841499	-149.919939	235.898414	515.020261	-7.269362	234.304894	428.019604	-23.630414	191.474089	352.888850	-27.650986	263.126275	423.945964	-49.381738	160.000580	262.117817	-42.705636	180.611358	269.285141	-124.155466	105.306594	263.299769	-90.766126	319.587457	146.919862	-86.241964	232.842343	155.561596	-25.071355	227.830412	971.988525	-398.946086	311.261109	947.030644	-399.448721	329.970432	974.653020	-384.456156	372.164291	884.366050	-415.973863	447.913802	811.686259	-417.447315	460.064834	784.505602	-296.616605	118.741931	621.209708	-376.180893	138.735278	614.108915	-296.855499	60.362484	634.355268	-327.724726	144.332143	476.329101	-388.232193	338.101341	756.505864	-436.098448	283.611471	691.776039	-412.589148	199.660786	664.223636	-399.546761	303.742499	671.212989	-387.722839	217.275524	432.892208	-329.826098	-204.421795	834.190830	-223.771701	-78.241226	81.801339	-423.625195	-102.688527	80.366798	-24.346573	
503	2.5150	672.335597	1223.819965	-13.789299	578.495239	1316.464538	-332.764823	612.555579	1326.529027	-157.316679	598.099800	1182.804838	-177.517801	522.004385	1017.919012	94.229945	644.481536	878.465998	-7.037912	527.846471	1059.180659	-444.786631	666.928542	895.490155	-364.932612	86.031007	1129.333259	-131.570251	226.430564	1178.062601	-295.118103	286.985444	1108.155925	-2.580531	255.109361	1086.020100	-284.904831	278.155865	1023.619187	-36.294888	139.981377	1172.355064	-67.445908	129.050720	1201.817063	-173.603783	167.296794	1000.385070	21.969191	132.921300	1052.519374	-353.774298	207.135038	867.690359	30.887151	251.033520	794.464742	6.279669	250.285076	710.568764	-11.952977	285.662349	806.954359	-0.034478	288.068117	614.599029	-38.995690	272.836868	611.629652	-149.579646	229.608838	513.828158	-7.097980	228.502350	426.772633	-23.479068	185.983400	351.538702	-27.608278	257.416232	422.777432	-49.132877	155.429899	260.772057	-42.907267	175.629291	267.681933	-124.109690	100.922630	262.781748	-90.992425	313.319228	142.992720	-86.678000	226.712629	153.070415	-25.415222	228.882404	973.767433	-397.927006	312.599080	949.825907	-397.926469	330.917348	977.581452	-382.721460	374.122660	888.067623	-414.609998	451.696485	816.250261	-415.433012	463.216913	789.202297	-294.410305	123.536584	623.418222	-375.636636	143.124118	616.600490	-295.855098	64.520818	635.723075	-327.197361	150.732058	479.043141	-387.842362	342.342017	760.285502	-434.341375	288.086262	694.882849	-411.132186	204.193072	666.808670	-398.761803	308.188562	674.502109	-386.235215	224.019930	436.698670	-329.593009	-204.458527	834.187236	-223.761391	-78.242639	81.792725	-423.605568	-102.703858	80.368303	-24.337255	
504	2.5200	672.079926	1226.547654	-15.134942	579.155443	1317.189948	-335.780638	613.603463	1327.634253	-160.461963	598.838754	1183.571093	-179.789857	523.840362	1019.997618	93.266249	644.692746	878.321334	-6.951673	527.090229	1058.626243	-445.786174	666.855116	895.822165	-365.165073	86.820495	1130.499737	-130.280154	226.020284	1178.902132	-294.987346	288.679499	1109.158105	-3.184146	255.055405	1086.717660	-285.053200	279.171305	1024.709141	-36.485284	141.466098	1173.159289	-66.565555	129.597011	1202.640023	-172.455998	167.996185	1001.232033	22.427098	132.828657	1053.987176	-352.647276	205.078969	868.054374	31.330877	247.632946	794.165142	6.660336	245.339926	710.322772	-11.621174	282.516208	806.007405	0.281596	281.654007	613.838393	-38.822337	265.114653	610.730567	-149.869254	223.252507	512.978698	-7.023323	222.616551	425.936353	-23.312432	180.499651	350.546222	-27.515625	251.672530	422.115017	-48.845193	150.825010	259.865154	-42.949831	171.087879	266.480933	-124.041148	96.518055	262.887207	-91.083458	307.006158	139.475824	-86.920317	220.541470	151.006623	-25.691954	229.780370	975.651131	-396.631554	313.713632	952.664802	-396.317506	331.503108	980.807310	-380.872144	376.178800	891.588131	-413.002453	455.039199	820.694262	-413.344803	466.208064	793.763176	-292.081132	128.163966	625.206889	-375.122201	147.465151	618.707625	-295.263410	68.690708	636.829690	-326.864609	157.265317	481.482231	-387.545451	346.297924	763.790393	-432.468692	292.396179	697.883483	-409.736060	208.697383	669.175655	-397.810219	312.560251	677.580738	-384.728325	230.931315	440.079158	-329.127821	-204.499363	834.185690	-223.786871	-78.248745	81.809183	-423.587979	-102.700069	80.371409	-24.325103	
